<?xml version="1.0" encoding="UTF-8" standalone="no"?> <svg id="Layer_1" data-name="Layer 1" xmlns="http://www.w3.org/2000/svg" viewBox="0 0 128 128"><defs><style>.cls-1{fill:#1d75b8;}.cls-2{fill:#2d3e50;}</style></defs><title>a</title><path class="cls-1" d="M73.14085,78.24351a15.01689,15.01689,0,0,0-3.203-2.1444,36.441,36.441,0,0,0-4.01623-1.72853q-1.42981-.49442-2.43947-.914a10.85252,10.85252,0,0,1-1.7-.86326,2.9502,2.9502,0,0,1-1.01021-1.01025,2.7023,2.7023,0,0,1-.32017-1.355,2.48011,2.48011,0,0,1,1.03476-2.06991,5.69879,5.69879,0,0,1,3.4-.78822,20.10366,20.10366,0,0,1,4.509.49252,22.81025,22.81025,0,0,1,3.76993,1.1828l1.52783-5.91327a19.52677,19.52677,0,0,0-2.93223-.98563,27.69957,27.69957,0,0,0-4.41058-.73921V56.28233H61.14148V61.6044A12.41082,12.41082,0,0,0,57.39641,62.861a8.36549,8.36549,0,0,0-2.56258,2.09421A8.27609,8.27609,0,0,0,53.38018,67.69a10.451,10.451,0,0,0-.46821,3.12952,7.54365,7.54365,0,0,0,2.78442,6.15961A12.80454,12.80454,0,0,0,58.505,78.72851q1.55261.7149,3.17845,1.306,1.67493.59158,2.95669,1.10862a12.75259,12.75259,0,0,1,2.11923,1.05958A4.34811,4.34811,0,0,1,68.04054,83.41a2.82313,2.82313,0,0,1,.44336,1.60169A2.676,2.676,0,0,1,67.37527,87.303q-1.10858.81312-4.11488.81292a18.107,18.107,0,0,1-5.05107-.68973,25.89958,25.89958,0,0,1-4.11464-1.52747l-2.11891,5.66689a33.60366,33.60366,0,0,0,3.32618,1.355,23.04817,23.04817,0,0,0,5.83952,1.10894V99.8935h6.20893V93.88159A13.01019,13.01019,0,0,0,71.416,92.60108a9.04743,9.04743,0,0,0,2.68585-2.11821,7.58986,7.58986,0,0,0,1.47811-2.68409,9.98481,9.98481,0,0,0,.44375-2.93043,8.83874,8.83874,0,0,0-.764-3.79275A8.74031,8.74031,0,0,0,73.14085,78.24351Z"/><path class="cls-2" d="M93.36025,38.70585,84.33741,31.8651,90.0543,7.71333a4.17578,4.17578,0,0,0-4.06312-5.13709H42.0082a4.17578,4.17578,0,0,0-4.06312,5.13709L43.662,31.86545l-9.02284,6.84041a48.76032,48.76032,0,0,0-19.22471,40.8649,46.9285,46.9285,0,0,0,21.90335,38.20351,49.505,49.505,0,0,0,25.18672,7.62878q.74525.0207,1.49552.0207.7509,0,1.49364-.0207a49.50581,49.50581,0,0,0,25.188-7.62878,46.92957,46.92957,0,0,0,21.904-38.20289A48.76162,48.76162,0,0,0,93.36025,38.70585Zm10.88141,40.52082a38.68257,38.68257,0,0,1-18.03908,31.49971,40.59212,40.59212,0,0,1-20.9423,6.329c-.83684.02384-1.68183.02384-2.52244,0a40.59128,40.59128,0,0,1-20.941-6.329A38.68476,38.68476,0,0,1,23.75771,79.226,40.40728,40.40728,0,0,1,39.684,45.36042l7.44122-5.64133a4.147,4.147,0,0,0,1.79789.42112h8.529a4.17541,4.17541,0,0,0,0-8.35082H52.22529L47.28706,10.92707H80.71231L75.77409,31.78939H72.019a4.17541,4.17541,0,0,0,0,8.35082h7.0573A4.147,4.147,0,0,0,80.8744,39.719l7.441,5.64145A40.40843,40.40843,0,0,1,104.24166,79.22667Z"/></svg>